<?xml version="1.0" standalone="no"?>
<!DOCTYPE svg PUBLIC "-//W3C//DTD SVG 20010904//EN"
 "http://www.w3.org/TR/2001/REC-SVG-20010904/DTD/svg10.dtd">
<svg version="1.0" xmlns="http://www.w3.org/2000/svg"
 width="1200.000000pt" height="1474.000000pt" viewBox="0 0 1200.000000 1474.000000"
 preserveAspectRatio="xMidYMid meet">

<g transform="translate(0.000000,1474.000000) scale(0.100000,-0.100000)"
fill="#000000" stroke="none">
<path d="M5530 14279 c-1196 -41 -2295 -180 -3625 -459 -505 -106 -999 -221
-1377 -321 l-38 -10 0 -859 c0 -473 2 -860 5 -860 2 0 100 21 217 46 799 171
1721 331 2503 434 308 40 365 46 710 80 110 11 247 24 305 30 170 17 342 29
735 51 434 24 1430 30 1820 10 1419 -72 2631 -234 4269 -571 214 -44 391 -80
393 -80 2 0 3 387 3 860 l0 859 -37 10 c-333 88 -1111 268 -1471 341 -449 92
-1130 212 -1442 255 -824 114 -1302 155 -2154 185 -308 11 -479 11 -816 -1z
m-150 -809 c116 -433 171 -622 187 -646 5 -6 18 -16 31 -23 42 -22 27 -41 -31
-41 -30 0 -109 -3 -176 -7 -115 -6 -123 -5 -120 12 2 10 19 22 39 29 53 17 53
43 -1 250 l-11 39 -121 -7 c-67 -4 -123 -9 -124 -10 -8 -8 -43 -164 -43 -190
0 -47 21 -79 58 -90 21 -6 32 -15 32 -27 0 -17 -10 -19 -120 -19 -78 0 -120 4
-120 11 0 6 14 22 30 36 17 14 38 42 46 62 9 20 79 266 155 546 166 605 149
549 159 539 4 -5 63 -214 130 -464z m648 438 c3 -14 -3 -18 -26 -18 -16 0 -40
-9 -53 -19 l-24 -19 0 -496 c0 -389 3 -498 13 -508 7 -7 44 -14 86 -16 147 -8
193 49 250 311 4 15 11 27 18 27 11 0 10 -52 -9 -317 l-6 -93 -318 0 c-260 0
-319 2 -319 13 0 8 18 19 40 26 22 6 44 20 50 31 6 12 10 199 10 519 l0 500
-26 20 c-15 12 -37 21 -50 21 -23 0 -32 19 -17 34 4 3 90 5 192 4 168 -3 186
-5 189 -20z m690 6 c33 -9 28 -34 -8 -34 -17 0 -39 -9 -50 -20 -19 -19 -20
-33 -20 -521 0 -320 4 -507 10 -519 6 -11 29 -24 51 -30 44 -12 48 -33 8 -39
-13 -2 -97 0 -186 4 -129 6 -163 10 -163 21 0 8 7 14 15 14 30 0 64 24 75 53
14 41 14 938 0 989 -9 32 -17 39 -50 49 -22 7 -40 18 -40 26 0 10 34 13 168
13 92 0 177 -3 190 -6z m290 -11 c108 -5 122 -8 122 -24 0 -11 -9 -19 -22 -21
-15 -2 -29 -16 -41 -39 -15 -32 -17 -63 -15 -254 l3 -217 132 170 c73 93 141
185 152 203 37 60 21 129 -30 129 -13 0 -19 7 -19 21 0 21 3 21 108 15 138 -9
172 -15 172 -31 0 -8 -15 -18 -33 -24 -26 -9 -67 -52 -177 -188 -78 -97 -145
-183 -147 -192 -2 -9 50 -130 116 -269 67 -139 121 -256 121 -260 0 -4 21 -42
47 -84 30 -50 57 -83 75 -90 16 -8 28 -21 28 -31 0 -17 -6 -18 -57 -13 -32 3
-115 8 -185 12 -112 6 -128 9 -128 24 0 9 12 22 26 29 24 11 26 15 21 55 -3
23 -50 135 -103 249 -78 166 -100 205 -111 196 -10 -9 -13 -56 -12 -213 0
-232 7 -266 57 -281 18 -5 32 -16 32 -25 0 -14 -18 -15 -137 -13 -177 4 -223
10 -223 29 0 8 10 14 25 14 36 0 63 32 70 82 3 24 5 251 3 504 -3 433 -4 463
-22 482 -10 12 -30 22 -44 24 -16 2 -28 10 -30 21 -4 20 25 21 226 10z m-2361
-34 c65 -24 112 -93 133 -194 23 -113 -10 -228 -84 -288 -22 -19 -48 -36 -56
-39 -10 -3 3 -14 36 -31 28 -14 65 -42 82 -61 89 -102 80 -327 -18 -439 -68
-77 -116 -93 -325 -111 -226 -20 -245 -20 -245 -1 0 8 11 17 25 21 14 3 34 18
45 31 19 25 20 42 20 520 l0 494 -25 24 c-13 14 -33 25 -45 25 -13 0 -20 7
-20 19 0 16 14 19 138 28 196 14 306 15 339 2z m3216 -20 c183 -16 253 -57
311 -178 28 -61 31 -74 30 -171 0 -124 -22 -188 -84 -244 -46 -41 -93 -56
-177 -56 l-63 0 0 -212 c0 -238 4 -256 60 -274 20 -7 37 -19 39 -29 3 -17 -3
-17 -70 -11 -41 4 -123 11 -182 15 -59 5 -110 11 -114 14 -14 14 8 37 36 37
62 0 62 4 59 551 l-3 491 -28 24 c-15 13 -37 24 -48 24 -12 0 -19 7 -19 20 0
22 -4 22 253 -1z m-4213 -354 c144 -527 202 -729 218 -757 8 -14 26 -31 39
-37 24 -11 30 -26 14 -35 -5 -4 -78 -13 -163 -21 -84 -9 -159 -17 -165 -20 -8
-3 -13 4 -13 16 0 14 9 21 30 26 58 11 62 49 24 193 l-27 98 -31 -4 c-17 -2
-71 -9 -121 -14 -49 -6 -91 -13 -94 -15 -10 -11 -41 -165 -41 -207 0 -51 23
-78 67 -78 15 0 23 -6 23 -18 0 -15 -17 -21 -108 -35 -60 -9 -114 -17 -120
-17 -22 0 -12 31 17 56 17 14 39 49 51 80 11 31 82 291 156 577 75 287 139
526 142 531 9 16 19 -15 102 -319z m5024 -157 c173 -682 183 -713 226 -741 25
-15 26 -47 3 -47 -10 0 -88 11 -173 23 -126 19 -156 26 -158 40 -3 13 4 17 32
17 60 0 64 25 30 172 l-29 123 -120 17 c-66 9 -123 14 -126 10 -15 -17 -39
-134 -39 -189 0 -55 3 -64 26 -82 15 -12 33 -21 40 -21 8 0 14 -9 14 -20 0
-18 -5 -20 -37 -15 -21 4 -74 9 -118 13 -65 6 -80 10 -83 24 -2 11 5 21 20 27
52 20 61 43 219 609 155 556 139 502 148 502 4 0 61 -208 125 -462z m-5464
252 c0 -126 -3 -160 -13 -160 -9 0 -20 28 -30 78 -13 57 -25 86 -46 110 -27
29 -36 32 -85 32 l-56 0 0 -513 c0 -570 -3 -541 65 -549 19 -2 30 -9 30 -18 0
-14 -52 -25 -342 -73 -49 -8 -44 23 6 44 32 14 42 24 50 55 7 25 11 212 11
532 0 465 -1 493 -17 488 -10 -2 -32 -7 -49 -11 -63 -12 -109 -87 -134 -217
-20 -100 -30 -65 -30 101 0 143 2 160 18 165 9 3 91 16 182 30 91 15 217 35
280 45 181 29 160 47 160 -139z m5940 99 c96 -17 193 -38 216 -48 63 -28 111
-77 146 -149 26 -57 32 -81 36 -163 6 -119 -13 -192 -64 -249 -45 -50 -86 -63
-182 -58 l-77 3 0 -220 c0 -246 5 -267 65 -280 21 -5 30 -13 30 -26 0 -10 -3
-19 -7 -19 -29 0 -350 63 -357 70 -14 14 4 30 34 30 62 0 60 -18 60 530 0 351
-3 506 -11 524 -7 14 -28 32 -50 40 -38 15 -46 26 -32 39 9 9 -5 11 193 -24z
m-6911 -110 c118 -25 206 -162 244 -377 18 -104 19 -130 9 -232 -15 -152 -42
-256 -97 -366 -57 -116 -117 -184 -198 -223 -120 -57 -216 -50 -294 22 -220
203 -217 762 6 1045 50 63 100 98 178 122 69 22 86 23 152 9z m7694 -124 c81
-343 230 -942 252 -1014 16 -48 37 -93 51 -108 25 -25 32 -53 13 -53 -6 0 -54
11 -107 24 -53 14 -125 30 -159 37 -50 9 -63 15 -63 30 0 13 9 19 38 21 34 3
37 6 40 37 3 25 -41 241 -52 258 -3 4 -241 51 -244 48 -2 -2 -12 -36 -23 -77
-33 -128 -24 -184 35 -212 37 -17 49 -46 19 -46 -9 0 -63 10 -120 22 -113 23
-128 38 -73 70 18 10 38 35 49 60 10 24 80 259 155 523 75 264 139 486 142
494 9 26 21 -2 47 -114z m-8253 -4 c0 -11 -14 -27 -33 -39 -25 -14 -71 -80
-181 -257 l-149 -239 48 -90 c107 -201 239 -433 267 -468 19 -25 38 -38 53
-38 27 0 42 -17 28 -31 -10 -10 -333 -99 -359 -99 -21 0 -17 28 6 40 31 17 41
53 27 94 -15 44 -190 375 -198 376 -21 1 -29 -65 -28 -223 0 -250 9 -286 67
-287 16 0 22 -5 20 -16 -2 -12 -48 -30 -158 -63 -85 -26 -166 -51 -178 -55
-20 -7 -23 -5 -20 10 2 11 16 25 31 32 63 31 62 15 65 572 2 339 -1 516 -8
535 -10 25 -14 27 -51 22 -36 -5 -40 -3 -37 15 3 18 25 27 153 63 218 61 205
58 205 38 0 -10 -14 -26 -30 -35 -17 -9 -35 -30 -42 -45 -15 -37 -24 -502 -9
-488 20 20 289 474 300 508 8 24 9 42 1 62 -9 24 -14 27 -40 21 -25 -5 -30 -2
-30 14 0 13 9 22 28 27 15 3 74 19 132 34 129 34 120 33 120 10z m8743 -20
c65 -15 119 -30 121 -32 1 -2 79 -187 172 -410 l169 -407 3 272 c3 324 -3 364
-59 418 -40 38 -49 58 -26 58 23 0 209 -58 219 -68 15 -15 0 -32 -27 -32 -16
0 -31 -10 -42 -27 -17 -25 -18 -71 -21 -581 -2 -354 -7 -552 -13 -550 -5 2
-78 163 -161 358 -83 195 -188 443 -234 550 l-83 195 0 -410 c-1 -385 1 -413
19 -453 11 -24 32 -50 50 -60 16 -9 30 -25 30 -34 0 -14 -14 -13 -122 16 -92
24 -124 36 -126 49 -3 12 3 17 21 17 14 0 35 9 48 19 l24 19 3 481 3 480 -25
49 c-14 27 -36 56 -50 66 -24 15 -36 46 -18 46 4 0 60 -13 125 -29z"/>
<path d="M5127 13344 c-26 -99 -47 -185 -47 -193 0 -11 18 -13 96 -8 53 3 97
7 99 9 4 4 -80 323 -93 352 -5 13 -21 -32 -55 -160z"/>
<path d="M4434 13801 c-2 -2 -4 -105 -4 -227 l0 -223 33 6 c42 8 78 29 100 58
30 41 50 142 43 218 -10 110 -49 162 -124 169 -24 2 -45 2 -48 -1z"/>
<path d="M4430 13058 c0 -242 6 -271 51 -276 38 -4 91 37 119 93 20 41 25 67
28 150 2 86 -1 108 -20 155 -29 67 -72 100 -134 100 l-44 0 0 -222z"/>
<path d="M7882 13523 l3 -248 35 2 c72 3 110 86 110 238 0 115 -16 174 -60
218 -25 24 -47 37 -64 37 l-26 0 2 -247z"/>
<path d="M3433 13202 c-28 -108 -51 -198 -50 -199 1 0 47 4 102 11 91 10 100
13 97 31 -5 26 -92 348 -95 352 -2 1 -26 -86 -54 -195z"/>
<path d="M8476 13380 c-7 -20 -96 -342 -96 -350 0 -8 190 -33 197 -26 2 2 -18
91 -45 197 -28 107 -52 187 -56 179z"/>
<path d="M9220 13350 l0 -250 43 0 c49 0 67 14 92 73 22 52 21 247 -2 316 -19
59 -70 111 -108 111 l-25 0 0 -250z"/>
<path d="M2064 13488 c-98 -87 -147 -365 -124 -706 17 -253 65 -362 162 -362
77 0 146 107 179 275 19 93 19 523 1 618 -16 86 -53 169 -83 191 -39 27 -93
21 -135 -16z"/>
<path d="M9809 13128 c-6 -24 -28 -104 -49 -178 -21 -74 -35 -138 -32 -141 11
-10 182 -43 188 -36 6 6 -84 397 -92 397 -2 0 -8 -19 -15 -42z"/>
<path d="M5518 9917 l-447 -252 0 -850 -1 -850 73 -38 72 -37 28 32 c72 82
129 165 259 371 141 225 222 338 277 391 l31 30 0 -25 c0 -19 6 -15 28 26 86
158 217 103 268 -112 30 -125 5 -321 -50 -405 l-16 -25 66 -12 c64 -11 68 -11
87 10 l20 22 19 -23 c10 -12 18 -28 18 -35 0 -9 39 -35 54 -35 2 0 7 15 10 34
8 40 36 69 60 60 26 -10 46 -58 46 -112 0 -35 5 -54 18 -65 30 -27 40 -20 47
31 17 134 60 189 101 128 13 -21 14 -37 5 -118 -18 -154 -17 -171 8 -207 15
-20 27 -29 33 -23 5 5 18 85 29 178 21 180 49 315 75 366 16 30 16 30 35 11
30 -30 59 -186 59 -320 0 -62 2 -113 5 -113 2 0 16 5 30 12 l25 11 -2 845 -3
844 -448 254 c-247 140 -454 254 -460 254 -7 0 -213 -114 -459 -253z m662 -32
c19 -14 44 -25 56 -25 l22 0 4 -247 c3 -235 5 -251 27 -301 13 -28 40 -66 59
-83 98 -86 141 -77 455 98 4 2 7 -31 7 -74 l0 -78 -98 -44 c-265 -121 -429
-125 -522 -13 -17 21 -37 60 -44 87 -25 90 -30 705 -6 705 3 0 21 -11 40 -25z
m-345 -77 c-17 -164 -64 -275 -163 -380 -36 -38 -74 -74 -85 -80 -19 -10 -20
-8 -13 54 10 97 42 202 96 314 53 109 102 164 146 164 l26 0 -7 -72z m576 -79
c20 -20 21 -28 14 -142 -7 -135 3 -171 57 -210 45 -34 90 -17 174 65 76 73 95
80 121 41 13 -20 10 -25 -69 -90 -161 -135 -174 -143 -229 -143 -44 0 -55 4
-92 39 l-42 40 2 138 c1 76 4 171 8 211 7 79 18 89 56 51z m-865 -184 c-44
-131 -108 -265 -174 -365 -61 -94 -151 -180 -186 -180 -24 0 -26 4 -26 43 0
23 4 58 10 77 22 78 257 429 356 534 48 50 49 51 52 24 2 -15 -13 -75 -32
-133z m1067 34 c40 -76 -24 -166 -92 -129 -43 23 -52 119 -13 152 40 36 79 27
105 -23z m-1253 -30 c0 -24 -67 -136 -107 -177 -54 -57 -86 -56 -91 2 -4 47
32 104 92 145 60 41 106 54 106 30z m407 -398 c-55 -59 -98 -124 -231 -345
-153 -254 -222 -345 -305 -398 -100 -63 -95 -36 36 186 309 527 356 598 463
706 l75 75 3 -89 3 -88 -44 -47z m-330 -123 c-70 -184 -170 -327 -232 -331
-30 -2 -30 -2 -33 57 -3 53 0 64 31 110 19 28 55 74 81 103 54 60 169 149 174
135 1 -5 -8 -38 -21 -74z m1313 28 c0 -3 -46 -42 -102 -87 -162 -130 -289
-177 -433 -161 -57 7 -61 9 -79 45 -18 37 -17 84 3 115 6 10 61 16 217 22 194
7 216 10 299 38 50 17 91 30 93 31 1 1 2 -1 2 -3z m-946 -127 c-25 -114 -57
-169 -199 -344 -45 -57 -118 -166 -165 -250 -93 -164 -170 -257 -226 -275 -70
-24 -70 23 0 166 44 88 67 120 197 269 37 41 116 146 175 232 99 142 221 290
231 280 2 -3 -4 -38 -13 -78z m1006 27 c0 -65 -115 -146 -218 -154 -52 -4 -54
-4 -43 16 18 33 80 79 171 127 47 24 86 44 88 45 1 0 2 -15 2 -34z m0 -254 c0
-154 -224 -288 -420 -252 -73 13 -132 40 -173 79 -39 35 -54 68 -59 121 -5 70
6 73 335 81 153 4 281 10 284 13 4 3 12 6 20 6 9 0 13 -15 13 -48z m-212 -343
l3 -35 -91 -43 c-99 -48 -141 -51 -195 -15 -22 14 -26 22 -21 47 14 69 57 87
196 84 l105 -2 3 -36z"/>
<path d="M5729 8404 c-77 -98 -292 -423 -272 -411 4 3 38 25 75 50 36 25 70
46 75 48 4 2 23 35 42 73 19 38 59 95 88 126 55 60 59 75 44 144 l-6 29 -46
-59z"/>
<path d="M5796 8188 c-14 -18 -24 -33 -23 -34 1 -2 24 2 50 7 l47 11 -18 23
c-22 32 -26 31 -56 -7z"/>
<path d="M5070 6426 l0 -1195 438 -294 437 -294 3 910 c1 501 1 912 -1 913 -1
2 -48 13 -102 25 -55 11 -112 27 -126 34 l-26 14 -60 -142 c-164 -384 -233
-696 -238 -1065 -2 -168 -5 -206 -18 -219 -14 -14 -19 -14 -51 6 -52 33 -103
97 -122 154 -13 40 -16 72 -11 156 13 235 67 439 212 801 85 213 126 334 125
371 -1 8 -7 0 -15 -18 -7 -17 -29 -56 -49 -87 -47 -73 -141 -277 -181 -391
-24 -71 -35 -91 -52 -93 -17 -3 -22 4 -27 41 -4 24 -2 83 4 133 5 49 10 92 10
95 0 3 -12 4 -27 2 -16 -2 -42 5 -60 16 -93 58 -48 267 95 438 66 78 69 95 25
139 -30 30 -67 110 -87 188 -22 84 -39 265 -33 349 4 64 8 74 35 97 17 15 32
39 37 60 l7 35 -26 -30 -25 -30 -1 38 0 37 -45 0 -45 0 0 -1194z m770 5 c5
-11 10 -53 10 -95 l0 -75 -45 -32 c-123 -88 -182 -265 -192 -575 -9 -260 17
-474 78 -647 47 -134 33 -144 -93 -69 -128 76 -122 53 -109 385 16 398 30 501
92 705 66 218 113 316 180 376 28 25 55 46 60 46 4 0 13 -9 19 -19z m-14 -893
c-10 -271 -21 -495 -23 -498 -12 -12 -53 59 -72 124 -60 208 -44 556 37 786
42 117 41 115 59 97 16 -15 15 -52 -1 -509z"/>
<path d="M6815 7393 c0 -191 -3 -239 -19 -295 -17 -64 -17 -75 -3 -200 9 -73
19 -169 22 -213 4 -44 18 -114 32 -155 28 -84 29 -175 1 -207 -13 -15 -17 -81
-27 -403 -18 -578 -24 -661 -47 -701 -24 -40 -64 -65 -89 -55 -16 6 -17 17
-12 134 3 70 24 282 46 472 54 472 57 500 40 511 -8 5 -21 9 -30 9 -13 0 -17
-20 -22 -132 -7 -142 -17 -227 -71 -615 -19 -136 -38 -282 -42 -323 -8 -93
-33 -148 -88 -197 -69 -61 -145 -113 -168 -113 -34 0 -19 79 39 206 65 140 96
228 138 389 70 268 102 483 86 570 -6 32 -11 112 -11 178 l0 120 -40 43 c-22
24 -40 43 -40 41 0 -1 7 -36 15 -77 22 -108 30 -354 16 -484 -41 -372 -167
-688 -364 -911 -53 -60 -63 -43 -60 104 2 65 7 129 12 142 5 13 40 64 78 112
158 199 216 388 217 707 1 184 1 185 -32 281 -34 97 -85 199 -101 199 -5 0
-13 -6 -19 -13 -8 -10 -5 -29 14 -75 58 -143 68 -203 68 -407 1 -167 -2 -201
-22 -280 -30 -116 -108 -276 -166 -340 -51 -56 -60 -53 -72 23 -10 64 11 122
68 189 89 106 128 217 128 368 0 110 -14 161 -83 303 -29 59 -60 127 -69 151
l-17 44 -42 -7 c-23 -4 -46 -9 -51 -12 -9 -6 -9 -1608 0 -1731 l7 -83 428 287
427 287 0 1193 0 1193 -37 0 -38 0 0 -227z m-624 -1276 c15 -57 5 -347 -13
-358 -45 -29 -53 4 -44 185 9 198 15 239 32 225 8 -6 19 -30 25 -52z"/>
<path d="M2563 2969 c-62 -18 -63 -23 -63 -344 l0 -291 63 -62 63 -63 270 -54
c635 -127 1417 -219 2274 -267 293 -16 1267 -16 1560 0 841 47 1597 139 2342
286 l168 33 70 69 70 69 0 288 0 288 -23 23 c-43 43 -95 41 -387 -8 -1534
-262 -2929 -332 -4370 -220 -519 40 -954 96 -1632 209 -343 58 -354 59 -405
44z m6126 -321 c1 -63 -2 -78 -14 -78 -8 0 -15 4 -15 10 0 21 -73 89 -106 100
-42 14 -108 5 -151 -22 -93 -56 -130 -256 -73 -386 29 -64 94 -86 183 -61 l37
10 0 78 c0 83 -4 91 -53 91 -13 0 -17 4 -11 9 10 9 196 41 242 41 l27 0 -31
-19 c-30 -19 -32 -23 -36 -96 -3 -67 -6 -79 -28 -95 -78 -59 -296 -86 -368
-47 -55 30 -110 86 -123 125 -60 180 82 378 294 412 47 7 80 7 119 -1 51 -11
53 -11 73 15 17 24 20 25 27 9 3 -10 7 -53 7 -95z m-5219 84 l85 -17 72 -175
c40 -96 75 -175 79 -175 3 0 35 65 71 145 35 80 68 149 72 153 9 9 202 -12
215 -24 6 -5 0 -9 -15 -9 -50 0 -50 -1 -47 -246 l3 -229 33 -10 c17 -5 32 -13
32 -17 0 -4 -1 -8 -2 -8 -2 0 -59 7 -128 15 -69 8 -131 15 -137 15 -7 0 -13 5
-13 10 0 6 10 10 23 10 45 0 47 12 47 230 l0 205 -98 -215 c-54 -118 -101
-215 -106 -215 -5 0 -55 110 -110 245 l-101 245 -3 -199 c-3 -217 2 -239 53
-252 14 -3 25 -10 25 -15 0 -12 -30 -11 -109 2 -66 11 -105 29 -63 29 12 0 31
9 42 20 19 19 20 33 20 223 0 213 -7 248 -45 255 -11 2 -24 8 -29 13 -15 14
38 10 134 -9z m4635 -93 c-4 -5 -12 -9 -20 -9 -7 0 -21 -7 -29 -16 -14 -13
-16 -51 -16 -260 0 -134 -4 -244 -9 -244 -5 0 -86 84 -182 188 -95 103 -176
189 -181 190 -11 5 -10 -311 1 -341 7 -17 21 -28 42 -32 48 -11 19 -21 -78
-29 -54 -4 -83 -3 -83 4 0 5 8 10 17 10 9 0 27 10 40 22 23 21 23 25 23 219
l0 198 -26 20 c-15 12 -33 21 -40 21 -8 0 -14 4 -14 9 0 5 44 12 97 16 l97 7
76 -83 c41 -46 101 -111 132 -144 l58 -60 -1 75 c-1 41 -4 104 -8 140 -6 62
-7 65 -38 74 -18 5 -33 12 -33 16 0 7 160 28 173 22 4 -2 5 -8 2 -13z m-3620
-254 c108 -245 127 -281 155 -290 11 -4 20 -11 20 -17 0 -10 -37 -8 -202 8
-57 6 -82 24 -34 24 14 0 27 4 30 9 9 13 -27 102 -44 111 -8 4 -52 11 -97 15
l-82 7 -16 -38 c-22 -54 -17 -76 23 -86 60 -16 35 -28 -45 -22 -43 3 -84 7
-90 10 -17 5 -17 24 0 24 27 0 57 49 163 263 59 119 111 214 115 210 4 -5 51
-107 104 -228z m3045 199 c0 -3 -14 -10 -31 -16 -17 -6 -34 -21 -40 -35 -5
-13 -9 -96 -9 -183 0 -87 -4 -169 -9 -182 -15 -40 -81 -96 -127 -107 -68 -17
-143 -13 -191 10 -70 34 -77 56 -83 269 l-5 185 -35 12 c-48 16 -28 20 123 27
83 4 127 3 127 -4 0 -5 -10 -10 -23 -10 -44 0 -47 -13 -47 -211 0 -184 0 -188
24 -216 20 -23 32 -28 68 -27 23 0 58 8 75 18 55 28 62 54 63 245 2 184 -2
201 -46 201 -39 0 -27 18 14 23 62 6 152 7 152 1z m-2696 -14 c29 0 44 -15
162 -160 l129 -160 3 116 c3 128 -6 158 -53 170 -48 12 -27 27 28 20 28 -3 69
-6 90 -6 20 0 37 -4 37 -10 0 -5 -7 -10 -15 -10 -8 0 -24 -9 -35 -20 -19 -19
-20 -33 -20 -246 0 -176 -3 -225 -12 -222 -7 2 -89 97 -183 211 l-170 207 -3
-165 c-3 -181 2 -202 49 -212 51 -10 31 -23 -35 -23 -69 0 -126 9 -126 19 0 4
15 11 33 16 l32 10 3 203 c3 216 -1 237 -43 248 -14 3 -25 11 -25 17 0 6 22 8
61 3 34 -3 76 -6 93 -6z m711 -41 c5 -5 -3 -9 -21 -9 -52 0 -54 -9 -54 -202 0
-211 6 -231 73 -249 53 -14 111 3 141 44 19 26 21 45 24 192 4 179 -1 200 -48
210 -16 4 -30 11 -30 17 0 7 22 9 68 5 37 -4 79 -7 95 -7 15 0 27 -4 27 -10 0
-5 -11 -10 -24 -10 -13 0 -28 -6 -34 -12 -5 -7 -12 -93 -15 -190 -4 -174 -5
-179 -31 -213 -42 -55 -79 -70 -171 -70 -64 0 -89 5 -123 23 -75 40 -82 62
-82 254 0 92 -4 178 -10 192 -5 14 -20 28 -35 32 -14 3 -25 10 -25 14 0 11
262 0 275 -11z m1385 -49 c0 -69 -12 -93 -24 -47 -3 13 -17 36 -30 50 -21 22
-34 27 -76 27 l-50 0 0 -209 c0 -227 3 -241 56 -241 13 0 24 -4 24 -10 0 -6
-54 -10 -142 -9 -128 0 -139 2 -108 13 l35 13 3 223 2 223 -47 -7 c-53 -6
-103 -49 -103 -86 0 -11 -4 -20 -10 -20 -6 0 -10 30 -10 70 l0 69 128 4 c70 1
178 4 240 5 l112 2 0 -70z m-532 48 c-3 -7 -13 -15 -24 -16 -41 -8 -44 -26
-44 -264 0 -131 -4 -228 -9 -228 -5 0 -36 30 -68 68 -32 37 -94 108 -138 157
-44 50 -97 110 -117 135 l-38 45 0 -178 0 -178 43 -19 42 -19 -102 0 c-63 -1
-103 3 -103 9 0 6 11 10 24 10 53 0 57 14 54 233 l-3 202 -33 17 c-19 9 -36
19 -39 22 -4 3 39 6 95 6 l101 0 62 -72 c34 -40 89 -105 123 -145 33 -39 64
-72 69 -72 9 -1 8 160 -1 213 -7 38 -14 46 -57 62 -14 6 -1 10 45 14 113 11
122 11 118 -2z"/>
<path d="M4287 2364 c-21 -42 -37 -78 -35 -79 2 -2 36 -6 76 -10 l72 -7 -9 23
c-5 13 -22 52 -38 87 l-28 63 -38 -77z"/>
<path d="M10440 2869 c-169 -18 -440 -61 -690 -110 -140 -27 -261 -51 -267
-54 -10 -3 -13 -51 -13 -192 l0 -188 -247 -247 c-137 -137 -243 -248 -236
-248 6 0 24 5 40 11 67 26 710 182 938 228 265 54 687 122 870 140 61 6 123
15 139 19 28 8 27 9 -55 64 -104 69 -191 117 -289 159 -41 17 -77 33 -79 35
-13 12 210 248 306 325 52 41 68 59 57 63 -23 9 -376 5 -474 -5z"/>
<path d="M956 2861 c-3 -4 14 -23 37 -42 68 -55 195 -178 269 -263 l70 -78
-99 -42 c-166 -71 -371 -200 -342 -216 8 -5 64 -13 124 -19 538 -56 1322 -217
1885 -386 8 -3 -101 109 -243 248 l-258 252 1 191 0 190 -167 32 c-397 75
-680 113 -988 132 -197 12 -282 13 -289 1z"/>
<path d="M9008 2096 c-68 -12 -124 -28 -133 -37 -28 -27 -30 -83 -5 -133 12
-25 25 -46 29 -46 3 0 60 54 126 120 66 66 115 120 110 119 -6 -1 -63 -11
-127 -23z"/>
<path d="M2845 1991 c66 -66 122 -121 126 -121 3 0 15 17 27 39 24 43 28 87
10 126 -12 28 -11 27 -143 51 -49 8 -101 18 -115 21 -19 4 6 -26 95 -116z"/>
</g>
</svg>
