<?xml version="1.0" standalone="no"?>
<!DOCTYPE svg PUBLIC "-//W3C//DTD SVG 20010904//EN"
 "http://www.w3.org/TR/2001/REC-SVG-20010904/DTD/svg10.dtd">
<svg version="1.0" xmlns="http://www.w3.org/2000/svg"
 width="2060.000000pt" height="2052.000000pt" viewBox="0 0 2060.000000 2052.000000"
 preserveAspectRatio="xMidYMid meet">

<g transform="translate(0.000000,2052.000000) scale(0.100000,-0.100000)"
fill="#000000" stroke="none">
<path d="M9790 19939 c-733 -32 -1510 -210 -2390 -547 -592 -227 -1177 -526
-1585 -810 -758 -529 -1412 -1167 -1865 -1820 -809 -1167 -1347 -2623 -1494
-4042 -42 -405 -47 -1094 -12 -1450 122 -1216 555 -2399 1281 -3500 565 -858
1302 -1589 2219 -2204 957 -642 1967 -1050 3001 -1210 763 -119 1537 -112
2220 20 358 69 905 235 1215 369 383 164 639 376 777 641 215 414 208 1031
-18 1491 -224 457 -691 753 -1366 867 -227 38 -399 49 -683 43 -281 -5 -414
-22 -602 -78 -290 -86 -524 -245 -636 -432 -82 -137 -113 -329 -78 -481 22
-91 79 -199 130 -242 52 -45 155 -94 276 -132 161 -50 163 -50 67 19 -110 78
-209 177 -239 237 -18 37 -23 64 -23 127 0 110 30 174 128 269 172 168 410
246 754 246 430 0 750 -103 946 -304 267 -275 345 -808 173 -1182 -184 -396
-742 -809 -1290 -954 -266 -70 -471 -95 -914 -112 -843 -32 -1526 66 -2163
310 -1048 403 -1958 1083 -2531 1892 -456 646 -730 1417 -787 2222 -14 185
-14 628 -1 818 92 1342 576 2688 1361 3782 530 739 1200 1425 1914 1962 435
328 820 563 1390 851 783 396 1565 685 2440 904 571 143 932 207 1380 243 216
18 1471 18 1795 0 375 -20 706 -41 972 -62 335 -27 311 -30 236 33 -510 430
-1189 938 -1583 1183 -919 573 -2386 972 -3795 1034 -249 11 -361 11 -620 -1z"/>
<path d="M13810 17254 c-1368 -77 -2586 -411 -3941 -1080 -1359 -672 -2426
-1463 -3371 -2499 -672 -738 -1066 -1383 -1333 -2180 -472 -1409 -420 -2917
139 -4032 259 -517 657 -1001 1197 -1454 306 -257 608 -452 974 -630 692 -335
1430 -496 2110 -459 759 41 1145 116 1495 292 161 80 276 165 391 285 173 183
295 416 340 653 20 108 16 272 -10 364 -61 218 -223 419 -438 542 -151 86
-353 149 -516 160 -296 20 -624 -131 -718 -330 -44 -92 -40 -138 15 -213 38
-52 95 -108 101 -101 2 2 -3 32 -11 68 -16 76 -18 149 -5 183 15 39 72 88 136
118 191 89 402 42 573 -129 84 -84 131 -156 170 -260 35 -92 36 -226 3 -327
-58 -179 -210 -372 -387 -492 -411 -279 -1070 -339 -1779 -162 -536 134 -983
376 -1317 716 -205 207 -329 395 -456 693 -301 702 -341 1627 -101 2343 143
427 412 859 834 1342 747 854 1458 1426 2295 1844 802 400 1634 596 3000 705
619 50 642 51 1215 51 660 0 889 -14 1389 -86 687 -98 1262 -261 1707 -484
241 -120 324 -182 548 -406 l124 -124 -7 65 c-94 994 -194 1678 -317 2158 -44
173 -217 701 -304 927 -267 695 -559 1112 -972 1388 -415 277 -1066 462 -1888
537 -119 11 -759 21 -885 14z"/>
<path d="M4920 3309 c-651 -45 -1140 -456 -1261 -1059 -26 -126 -35 -356 -20
-494 36 -327 153 -582 365 -791 253 -251 555 -369 982 -382 313 -10 556 37
787 153 315 158 552 428 661 754 50 150 68 260 73 460 5 196 -8 312 -52 464
-93 318 -314 575 -638 737 -156 79 -387 141 -567 154 -174 12 -218 12 -330 4z
m435 -154 c113 -28 260 -95 350 -159 165 -118 311 -327 369 -530 59 -202 77
-536 42 -741 -74 -422 -330 -795 -643 -936 -90 -42 -198 -68 -320 -78 -470
-41 -864 190 -1043 611 -78 182 -105 365 -97 646 10 329 71 553 210 766 168
255 411 408 715 446 116 15 305 4 417 -25z"/>
<path d="M17540 3309 c-660 -45 -1158 -472 -1265 -1086 -72 -410 16 -840 230
-1125 257 -343 652 -518 1167 -518 456 0 812 140 1089 427 176 183 283 387
341 656 31 141 33 506 4 637 -85 390 -303 667 -665 849 -247 125 -574 183
-901 160z m431 -153 c397 -101 670 -393 753 -807 28 -136 39 -359 26 -503 -41
-472 -306 -899 -657 -1058 -251 -113 -613 -109 -870 12 -108 50 -162 88 -257
179 -97 94 -152 170 -210 292 -96 200 -131 395 -123 684 7 279 44 448 141 650
159 331 430 530 784 575 114 15 305 4 413 -24z"/>
<path d="M1470 1936 l0 -1311 165 0 165 0 0 668 c0 595 2 668 16 674 8 3 23 2
34 -3 28 -14 867 -1001 1001 -1179 l121 -160 214 0 c118 0 214 3 214 8 0 13
-295 372 -450 547 -128 145 -738 837 -778 882 -13 16 -2 31 134 172 116 121
519 512 1027 996 17 16 11 17 -135 16 l-153 -1 -466 -480 c-555 -572 -678
-691 -727 -704 -19 -6 -39 -8 -44 -5 -4 3 -8 272 -8 598 l0 593 -165 0 -165 0
0 -1311z"/>
<path d="M7210 3238 c0 -106 -338 -2504 -365 -2598 -4 -13 15 -15 134 -15
l138 0 6 190 c6 196 28 450 72 850 38 339 105 919 108 929 7 22 567 -1057 818
-1576 144 -298 176 -358 194 -358 16 0 31 25 79 133 91 203 272 568 402 812
136 257 532 976 543 988 9 9 8 16 61 -453 22 -195 56 -537 75 -760 20 -223 42
-475 50 -560 8 -85 15 -164 15 -175 0 -19 6 -20 180 -20 151 0 180 2 180 15 0
8 -25 192 -55 410 -66 482 -169 1372 -235 2050 -16 156 -13 150 -63 150 l-42
-1 -550 -1004 c-302 -552 -552 -1004 -555 -1004 -3 -1 -12 11 -21 27 -361 623
-696 1243 -970 1795 l-94 187 -52 0 c-36 0 -53 -4 -53 -12z"/>
<path d="M10460 1934 l0 -1311 170 1 170 0 0 1311 0 1310 -170 0 -170 0 0
-1311z"/>
<path d="M11550 1938 l0 -1314 110 0 110 0 0 1033 0 1033 23 -1 c16 0 232
-234 849 -917 455 -504 872 -970 928 -1035 l101 -117 59 0 60 0 0 1313 0 1313
-110 0 -110 0 0 -988 0 -989 -22 3 c-15 2 -329 335 -931 988 l-908 985 -80 3
-79 3 0 -1313z"/>
<path d="M14510 1937 l0 -1312 170 0 170 0 0 658 0 659 353 -6 c193 -4 402 -9
463 -12 l112 -6 -1 102 0 102 -71 -6 c-39 -3 -248 -9 -463 -13 l-393 -6 0 488
0 488 393 -6 c358 -6 529 -18 608 -42 14 -5 16 9 16 110 l0 115 -679 0 -678 0
0 -1313z"/>
</g>
</svg>
