<?xml version="1.0" standalone="no"?>
<!DOCTYPE svg PUBLIC "-//W3C//DTD SVG 20010904//EN"
 "http://www.w3.org/TR/2001/REC-SVG-20010904/DTD/svg10.dtd">
<svg version="1.0" xmlns="http://www.w3.org/2000/svg"
 width="2000.000000pt" height="2000.000000pt" viewBox="0 0 2000.000000 2000.000000"
 preserveAspectRatio="xMidYMid meet">

<g transform="translate(0.000000,2000.000000) scale(0.100000,-0.100000)"
fill="#000000" stroke="none">
<path d="M7630 15030 c0 -5 14 -10 30 -10 17 0 39 -9 50 -20 19 -19 20 -33 20
-392 0 -205 -4 -378 -8 -384 -11 -16 -48 -34 -71 -34 -12 0 -21 -5 -21 -11 0
-7 74 -9 238 -7 223 3 240 4 287 26 95 44 138 108 139 207 1 88 -33 143 -116
184 -33 17 -71 31 -82 31 -12 0 -27 4 -35 9 -10 6 -4 12 21 20 92 30 155 126
146 222 -8 76 -62 135 -147 159 -48 13 -451 13 -451 0z m417 -37 c48 -35 64
-74 64 -155 0 -146 -45 -195 -187 -205 l-74 -6 0 177 c0 166 1 177 21 197 18
18 30 21 85 17 44 -3 72 -10 91 -25z m38 -409 c59 -31 85 -82 85 -171 0 -107
-24 -154 -100 -193 -71 -36 -188 -35 -212 3 -4 7 -8 97 -8 200 l0 189 98 -4
c74 -2 106 -8 137 -24z"/>
<path d="M9128 14700 c-82 -25 -144 -94 -173 -195 -26 -87 -17 -222 18 -291
87 -171 329 -192 428 -36 21 34 26 49 18 56 -8 8 -13 7 -16 -2 -11 -29 -67
-84 -101 -97 -134 -57 -252 61 -252 252 l0 63 186 0 187 0 -6 58 c-9 101 -53
162 -136 190 -39 14 -113 14 -153 2z m125 -30 c30 -24 57 -97 57 -157 l0 -44
-127 3 -128 3 3 30 c14 140 116 227 195 165z"/>
<path d="M6515 14590 c3 -5 14 -10 25 -10 10 0 21 -7 24 -16 3 -9 6 -116 6
-239 0 -233 -1 -237 -45 -248 -11 -2 68 -5 176 -6 l196 -1 -1 75 c-1 81 -10
97 -21 38 -4 -21 -11 -46 -17 -56 -14 -27 -70 -47 -132 -47 -88 0 -87 -5 -84
258 3 224 3 227 26 238 43 21 35 24 -62 24 -62 0 -95 -4 -91 -10z"/>
<path d="M16900 14343 c-622 -364 -1094 -644 -1652 -979 -269 -162 -488 -291
-488 -288 0 2 22 33 49 68 75 98 159 238 223 374 86 180 186 497 165 519 -15
15 -35 -26 -61 -127 -77 -293 -247 -625 -434 -845 -53 -62 -82 -83 -247 -183
-102 -63 -193 -111 -200 -108 -25 9 -94 107 -107 149 -18 61 -13 257 12 442
58 438 29 626 -108 714 -90 57 -148 74 -253 75 -91 1 -99 -1 -175 -38 -95 -47
-219 -166 -274 -264 l-35 -63 -85 2 c-335 7 -463 -21 -554 -121 -49 -54 -71
-106 -87 -200 -17 -103 -15 -161 6 -217 l18 -47 13 63 c7 35 15 66 18 68 4 5
115 -23 123 -31 3 -3 10 -49 14 -103 12 -134 49 -311 49 -235 0 41 41 131 71
157 22 18 42 25 72 25 122 -1 145 -149 41 -257 -24 -26 -44 -50 -44 -54 0 -14
-54 -50 -67 -45 -17 7 -16 2 3 -37 58 -114 145 -183 279 -217 131 -35 273 -11
296 48 10 25 12 25 18 8 7 -18 9 -16 19 12 6 18 31 61 57 96 25 35 63 101 84
147 24 51 42 78 45 69 3 -8 13 -35 21 -60 33 -94 118 -205 191 -251 19 -11 34
-24 34 -29 0 -4 -77 -56 -171 -114 -144 -89 -174 -104 -190 -95 -38 20 -115
-11 -297 -119 -100 -59 -122 -81 -122 -123 0 -22 -23 -41 -167 -141 -93 -63
-262 -175 -378 -248 -426 -270 -1237 -803 -1601 -1051 l-161 -110 23 -57 c28
-68 29 -85 8 -230 -9 -62 -14 -115 -12 -117 11 -11 403 -98 560 -125 262 -44
469 -62 664 -58 214 4 228 10 369 152 102 103 147 163 261 353 35 59 64 98 64
87 0 -11 -29 -220 -64 -464 -79 -551 -96 -696 -96 -842 0 -125 6 -143 55 -157
22 -5 29 -13 28 -27 -2 -10 -32 -210 -68 -444 -219 -1437 -347 -2477 -374
-3035 -8 -163 -6 -216 10 -375 30 -286 84 -616 195 -1190 56 -291 76 -386 215
-1034 43 -204 79 -378 79 -388 0 -11 -7 -18 -20 -18 -23 0 -24 -10 -9 -79 l10
-49 86 -7 c122 -11 303 -1 314 16 5 8 9 38 9 67 0 52 0 52 -31 52 l-32 0 7
218 c25 788 23 2127 -4 2382 -6 58 -12 116 -12 130 0 14 27 113 60 220 128
412 359 1193 515 1740 53 184 50 191 67 -165 44 -935 136 -1877 311 -3180 49
-371 172 -1248 184 -1317 4 -24 1 -28 -20 -28 -15 0 -23 -5 -20 -12 2 -7 9
-39 15 -70 l11 -58 193 0 193 0 7 53 c9 77 8 87 -10 87 -19 0 -21 -18 25 340
30 235 63 571 81 835 18 241 24 881 11 1105 -13 231 -42 506 -72 686 l-20 122
25 208 c171 1387 165 2530 -16 3192 l-31 113 20 22 c48 52 52 85 28 224 -27
162 -105 1032 -105 1180 0 48 2 53 23 53 56 0 213 42 279 73 132 64 206 167
195 273 -9 92 -114 280 -278 500 -104 140 -356 439 -422 502 -64 60 -159 109
-232 119 -46 6 -48 8 -20 14 49 11 347 10 455 -2 56 -6 141 -19 188 -29 61
-12 91 -14 100 -7 20 16 4 24 -83 41 -268 51 -567 58 -805 16 -25 -4 -70 -5
-100 -1 l-55 6 190 124 c262 171 270 176 355 196 109 26 193 84 262 183 23 34
87 82 281 211 228 151 262 170 351 199 265 86 541 103 760 46 41 -11 62 -12
69 -5 15 15 6 21 -70 43 -149 43 -471 33 -666 -21 -37 -10 -67 -17 -67 -16 0
2 116 81 258 176 468 315 1332 902 1740 1182 96 67 119 88 90 86 -7 0 -209
-115 -448 -256z m-4454 -3169 c-150 -356 -222 -511 -304 -650 l-42 -72 -142
-6 c-303 -14 -968 -12 -968 2 0 4 24 20 53 36 162 91 1179 710 1442 878 22 14
41 22 43 19 1 -4 -35 -97 -82 -207z"/>
<path d="M11440 14450 c-34 -34 -21 -93 26 -110 33 -13 81 11 90 44 6 24 -10
65 -30 78 -21 14 -66 8 -86 -12z"/>
<path d="M11747 14452 c-21 -23 -22 -76 -1 -96 24 -25 68 -24 97 1 23 21 22
75 -1 96 -25 22 -75 21 -95 -1z"/>
<path d="M12048 14453 c-24 -28 -28 -51 -16 -78 28 -62 128 -41 128 27 0 57
-77 91 -112 51z"/>
<path d="M3890 13770 c0 -14 11 -19 51 -22 34 -4 58 -12 72 -27 22 -22 22 -22
25 -589 2 -422 -1 -574 -9 -596 -14 -32 -61 -56 -109 -56 -22 0 -30 -5 -30
-17 0 -17 21 -18 318 -17 353 1 401 8 540 76 79 39 195 148 235 222 78 141
109 314 88 491 -33 290 -167 456 -422 527 -67 18 -107 20 -416 23 -319 2 -343
1 -343 -15z m655 -36 c132 -32 215 -96 270 -207 55 -113 69 -192 69 -412 0
-212 -12 -293 -62 -399 -37 -77 -73 -121 -137 -161 -82 -52 -137 -67 -275 -72
-124 -5 -126 -5 -155 20 l-30 25 0 586 c0 584 0 585 21 607 12 11 37 25 55 29
44 11 168 2 244 -16z"/>
<path d="M5471 13486 c14 -15 58 -113 109 -245 47 -122 88 -221 91 -221 8 0
-1 -22 98 235 45 116 90 217 101 227 11 9 20 19 20 22 0 3 -30 6 -67 6 -67 -1
-68 -1 -35 -15 32 -14 36 -22 32 -59 -2 -22 -109 -307 -120 -319 -9 -10 -143
350 -135 364 4 6 17 14 29 19 14 6 -5 9 -63 9 l-84 1 24 -24z"/>
<path d="M6510 13483 c0 -8 13 -13 29 -13 37 0 58 -21 66 -63 3 -18 5 -181 3
-363 -3 -307 -4 -333 -22 -352 -10 -12 -31 -24 -47 -27 -62 -14 -24 -25 86
-25 113 0 151 12 81 26 -72 13 -71 5 -74 397 -2 193 0 348 4 344 4 -3 74 -178
155 -388 82 -210 151 -384 154 -387 10 -10 16 4 160 394 l140 376 3 -343 c3
-381 3 -381 -62 -393 -20 -4 -36 -11 -36 -16 0 -6 63 -10 155 -10 85 0 155 4
155 8 0 4 -19 14 -42 22 -34 12 -43 21 -50 48 -5 18 -7 185 -6 371 3 317 4
340 22 360 11 12 31 21 48 21 16 0 28 5 28 13 0 9 -26 11 -104 9 l-105 -3 -16
-42 c-8 -23 -67 -179 -129 -347 -88 -234 -116 -300 -123 -285 -4 11 -64 168
-133 348 l-125 329 -108 1 c-80 2 -107 -1 -107 -10z"/>
<path d="M9076 13416 c-133 -50 -169 -212 -74 -336 11 -14 76 -63 145 -110
152 -103 185 -139 190 -212 9 -116 -78 -187 -202 -164 -75 14 -144 108 -160
219 -9 59 -25 62 -25 5 0 -24 -3 -87 -7 -140 -5 -87 -4 -98 10 -98 10 0 17 6
17 14 0 32 24 35 80 8 72 -34 181 -42 246 -17 94 36 143 106 144 204 0 105
-46 163 -215 268 -153 96 -205 160 -191 238 17 88 113 138 203 104 61 -23 116
-99 129 -178 4 -24 11 -40 18 -38 15 5 21 237 6 237 -6 0 -15 -11 -20 -25 -12
-31 -21 -31 -76 1 -56 33 -158 42 -218 20z"/>
<path d="M8005 13340 c-27 -4 -44 -8 -37 -8 6 -1 21 -11 32 -22 18 -18 20 -33
20 -171 0 -166 10 -207 56 -228 58 -26 134 -4 177 50 l27 34 0 -42 0 -42 65 1
c36 0 65 5 65 9 0 5 -6 9 -13 9 -8 0 -21 8 -30 18 -15 16 -17 46 -17 212 l0
193 -37 -7 c-21 -3 -54 -6 -73 -7 l-35 -1 27 -10 c39 -14 52 -68 45 -194 -7
-145 -41 -204 -118 -206 -60 -2 -64 12 -67 227 -3 175 -5 195 -20 193 -9 0
-39 -4 -67 -8z"/>
<path d="M12591 13136 c-11 -13 -11 -20 -3 -28 15 -15 24 -5 20 23 -3 21 -4
21 -17 5z"/>
<path d="M12570 13061 c0 -6 6 -11 14 -11 9 0 16 -13 19 -32 4 -27 4 -25 3 7
-1 29 -6 41 -18 43 -10 2 -18 -1 -18 -7z"/>
<path d="M10205 10129 c-460 -321 -845 -597 -845 -604 0 -10 762 417 1112 622
l67 39 -77 24 c-42 13 -82 26 -87 27 -6 2 -82 -47 -170 -108z"/>
<path d="M4660 7350 l0 -140 95 0 95 0 -2 -172 -3 -173 -562 -3 -561 -2 -26
-31 -26 -31 0 -886 c0 -731 3 -899 15 -955 30 -145 142 -292 268 -355 129 -65
38 -62 1607 -62 1552 0 1480 -2 1606 57 80 37 189 147 231 234 59 120 58 94
58 1076 l0 902 -23 23 -23 23 -562 5 -562 5 -3 173 -2 172 90 0 90 0 0 140 0
140 -900 0 -900 0 0 -140z"/>
<path d="M4730 3763 l0 -306 22 19 c12 10 60 54 107 96 l85 76 27 -21 c15 -12
63 -55 108 -96 l81 -73 0 306 0 306 -215 0 -215 0 0 -307z"/>
<path d="M2596 3234 c-28 -29 -32 -48 -16 -88 22 -60 -113 -56 2008 -56 1277
0 1958 -3 1993 -10 118 -23 250 -111 305 -207 64 -109 81 -254 44 -374 -46
-151 -154 -257 -309 -303 -49 -14 -242 -16 -2021 -16 l-1967 0 -27 -26 c-36
-36 -36 -86 0 -119 l27 -25 2895 0 c3217 0 2940 -6 3092 68 54 26 96 58 151
112 204 202 247 518 101 759 -83 138 -181 221 -327 276 l-80 30 -2921 3 -2921
2 -27 -26z"/>
<path d="M13091 2333 c-16 -31 -147 -38 -201 -11 -50 25 -67 19 -124 -42 -41
-43 -56 -52 -143 -79 -54 -17 -132 -38 -173 -47 -130 -28 -143 -35 -167 -84
-13 -24 -23 -57 -23 -72 l0 -28 457 0 456 0 -6 118 c-10 175 -47 297 -76 245z"/>
<path d="M14250 2323 c-14 -8 -38 -32 -55 -53 -27 -34 -43 -42 -148 -75 -64
-20 -151 -43 -192 -50 -110 -19 -143 -48 -160 -138 l-7 -37 462 0 463 0 -7
108 c-9 128 -13 161 -30 209 -17 50 -38 62 -73 42 -40 -23 -130 -32 -156 -15
-37 23 -70 26 -97 9z"/>
</g>
</svg>
